<mxfile host="app.diagrams.net" agent="Mozilla/5.0 (Windows NT 10.0; Win64; x64; rv:128.0) Gecko/20100101 Firefox/128.0" version="24.7.6">
  <diagram id="C5RBs43oDa-KdzZeNtuy" name="Page-1">
    <mxGraphModel dx="1050" dy="577" grid="1" gridSize="10" guides="1" tooltips="1" connect="1" arrows="1" fold="1" page="1" pageScale="1" pageWidth="827" pageHeight="1169" math="0" shadow="0">
      <root>
        <mxCell id="WIyWlLk6GJQsqaUBKTNV-0" />
        <mxCell id="WIyWlLk6GJQsqaUBKTNV-1" parent="WIyWlLk6GJQsqaUBKTNV-0" />
        <mxCell id="K2FkjbjsF-SiQRzUByf0-9" value="" style="edgeStyle=orthogonalEdgeStyle;rounded=0;orthogonalLoop=1;jettySize=auto;html=1;" parent="WIyWlLk6GJQsqaUBKTNV-1" source="K2FkjbjsF-SiQRzUByf0-1" target="K2FkjbjsF-SiQRzUByf0-8" edge="1">
          <mxGeometry relative="1" as="geometry" />
        </mxCell>
        <mxCell id="K2FkjbjsF-SiQRzUByf0-1" value="set value of selectedItem in cart to the value in the entry passed to function" style="rounded=0;whiteSpace=wrap;html=1;" parent="WIyWlLk6GJQsqaUBKTNV-1" vertex="1">
          <mxGeometry x="30" y="290" width="210" height="50" as="geometry" />
        </mxCell>
        <mxCell id="03acqevZFBICOVOGmCOp-1" value="" style="edgeStyle=orthogonalEdgeStyle;rounded=0;orthogonalLoop=1;jettySize=auto;html=1;" edge="1" parent="WIyWlLk6GJQsqaUBKTNV-1" source="K2FkjbjsF-SiQRzUByf0-3" target="03acqevZFBICOVOGmCOp-0">
          <mxGeometry relative="1" as="geometry" />
        </mxCell>
        <mxCell id="K2FkjbjsF-SiQRzUByf0-3" value="&lt;div&gt;set_amt&lt;/div&gt;&lt;div&gt;string: sn&lt;/div&gt;&lt;div&gt;bool: is_cart&lt;/div&gt;&lt;div&gt;&amp;nbsp;string: entry&lt;br&gt;&lt;/div&gt;" style="strokeWidth=2;html=1;shape=mxgraph.flowchart.terminator;whiteSpace=wrap;" parent="WIyWlLk6GJQsqaUBKTNV-1" vertex="1">
          <mxGeometry x="85" y="10" width="100" height="60" as="geometry" />
        </mxCell>
        <mxCell id="K2FkjbjsF-SiQRzUByf0-4" value="end" style="strokeWidth=2;html=1;shape=mxgraph.flowchart.terminator;whiteSpace=wrap;" parent="WIyWlLk6GJQsqaUBKTNV-1" vertex="1">
          <mxGeometry x="85" y="640" width="100" height="60" as="geometry" />
        </mxCell>
        <object label="" id="K2FkjbjsF-SiQRzUByf0-5">
          <mxCell style="verticalLabelPosition=bottom;verticalAlign=top;html=1;shape=process;whiteSpace=wrap;rounded=1;size=0.14;arcSize=6;" parent="WIyWlLk6GJQsqaUBKTNV-1" vertex="1">
            <mxGeometry x="75" y="520" width="120" height="80" as="geometry" />
          </mxCell>
        </object>
        <mxCell id="K2FkjbjsF-SiQRzUByf0-6" value="update_labels" style="text;html=1;align=center;verticalAlign=middle;whiteSpace=wrap;rounded=0;" parent="WIyWlLk6GJQsqaUBKTNV-1" vertex="1">
          <mxGeometry x="105" y="545" width="60" height="30" as="geometry" />
        </mxCell>
        <mxCell id="K2FkjbjsF-SiQRzUByf0-7" style="edgeStyle=orthogonalEdgeStyle;rounded=0;orthogonalLoop=1;jettySize=auto;html=1;exitX=0.5;exitY=1;exitDx=0;exitDy=0;entryX=0.5;entryY=0;entryDx=0;entryDy=0;entryPerimeter=0;" parent="WIyWlLk6GJQsqaUBKTNV-1" source="K2FkjbjsF-SiQRzUByf0-5" target="K2FkjbjsF-SiQRzUByf0-4" edge="1">
          <mxGeometry relative="1" as="geometry" />
        </mxCell>
        <mxCell id="K2FkjbjsF-SiQRzUByf0-10" value="no" style="edgeStyle=orthogonalEdgeStyle;rounded=0;orthogonalLoop=1;jettySize=auto;html=1;entryX=0.5;entryY=0;entryDx=0;entryDy=0;" parent="WIyWlLk6GJQsqaUBKTNV-1" source="K2FkjbjsF-SiQRzUByf0-8" target="K2FkjbjsF-SiQRzUByf0-5" edge="1">
          <mxGeometry relative="1" as="geometry" />
        </mxCell>
        <mxCell id="K2FkjbjsF-SiQRzUByf0-12" value="yes" style="edgeStyle=orthogonalEdgeStyle;rounded=0;orthogonalLoop=1;jettySize=auto;html=1;" parent="WIyWlLk6GJQsqaUBKTNV-1" source="K2FkjbjsF-SiQRzUByf0-8" target="K2FkjbjsF-SiQRzUByf0-11" edge="1">
          <mxGeometry relative="1" as="geometry" />
        </mxCell>
        <mxCell id="K2FkjbjsF-SiQRzUByf0-8" value="is new value on selectedItem 0" style="rhombus;whiteSpace=wrap;html=1;" parent="WIyWlLk6GJQsqaUBKTNV-1" vertex="1">
          <mxGeometry x="60" y="360" width="150" height="80" as="geometry" />
        </mxCell>
        <mxCell id="K2FkjbjsF-SiQRzUByf0-13" style="edgeStyle=orthogonalEdgeStyle;rounded=0;orthogonalLoop=1;jettySize=auto;html=1;" parent="WIyWlLk6GJQsqaUBKTNV-1" source="K2FkjbjsF-SiQRzUByf0-11" edge="1">
          <mxGeometry relative="1" as="geometry">
            <mxPoint x="140" y="490" as="targetPoint" />
            <Array as="points">
              <mxPoint x="340" y="490" />
            </Array>
          </mxGeometry>
        </mxCell>
        <mxCell id="K2FkjbjsF-SiQRzUByf0-11" value="remove_cart_label pass selectedItem and is_cart_label=is_cart" style="shape=process;whiteSpace=wrap;html=1;backgroundOutline=1;" parent="WIyWlLk6GJQsqaUBKTNV-1" vertex="1">
          <mxGeometry x="264" y="370" width="150" height="60" as="geometry" />
        </mxCell>
        <mxCell id="03acqevZFBICOVOGmCOp-2" value="no" style="edgeStyle=orthogonalEdgeStyle;rounded=0;orthogonalLoop=1;jettySize=auto;html=1;" edge="1" parent="WIyWlLk6GJQsqaUBKTNV-1" source="03acqevZFBICOVOGmCOp-0" target="K2FkjbjsF-SiQRzUByf0-1">
          <mxGeometry relative="1" as="geometry" />
        </mxCell>
        <mxCell id="03acqevZFBICOVOGmCOp-4" style="edgeStyle=orthogonalEdgeStyle;rounded=0;orthogonalLoop=1;jettySize=auto;html=1;entryX=0;entryY=0.5;entryDx=0;entryDy=0;" edge="1" parent="WIyWlLk6GJQsqaUBKTNV-1" source="03acqevZFBICOVOGmCOp-0" target="03acqevZFBICOVOGmCOp-3">
          <mxGeometry relative="1" as="geometry" />
        </mxCell>
        <mxCell id="03acqevZFBICOVOGmCOp-0" value="is_cart and is value at entry is 0" style="rhombus;whiteSpace=wrap;html=1;strokeWidth=2;" vertex="1" parent="WIyWlLk6GJQsqaUBKTNV-1">
          <mxGeometry x="80" y="140" width="110" height="80" as="geometry" />
        </mxCell>
        <mxCell id="03acqevZFBICOVOGmCOp-5" style="edgeStyle=orthogonalEdgeStyle;rounded=0;orthogonalLoop=1;jettySize=auto;html=1;" edge="1" parent="WIyWlLk6GJQsqaUBKTNV-1" source="03acqevZFBICOVOGmCOp-3">
          <mxGeometry relative="1" as="geometry">
            <mxPoint x="340" y="490" as="targetPoint" />
            <Array as="points">
              <mxPoint x="515" y="490" />
            </Array>
          </mxGeometry>
        </mxCell>
        <mxCell id="03acqevZFBICOVOGmCOp-3" value="remove_cart_label pass selectedItem and is_cart_label=is_cart" style="shape=process;whiteSpace=wrap;html=1;backgroundOutline=1;" vertex="1" parent="WIyWlLk6GJQsqaUBKTNV-1">
          <mxGeometry x="440" y="150" width="150" height="60" as="geometry" />
        </mxCell>
      </root>
    </mxGraphModel>
  </diagram>
</mxfile>
